<?xml version="1.0" encoding="UTF-8"?>
<!-- Do not edit this file with editors other than draw.io -->
<!DOCTYPE svg PUBLIC "-//W3C//DTD SVG 1.1//EN" "http://www.w3.org/Graphics/SVG/1.1/DTD/svg11.dtd">
<svg xmlns="http://www.w3.org/2000/svg" style="background: transparent; background-color: transparent; color-scheme: light;" xmlns:xlink="http://www.w3.org/1999/xlink" version="1.1" width="526" height="486" viewBox="-0.5 -0.5 526 486" content="&lt;mxfile host=&quot;Electron&quot; agent=&quot;Mozilla/5.0 (Windows NT 10.0; Win64; x64) AppleWebKit/537.36 (KHTML, like Gecko) draw.io/27.0.5 Chrome/134.0.6998.205 Electron/35.3.0 Safari/537.36&quot; version=&quot;27.0.5&quot; scale=&quot;1&quot; border=&quot;0&quot;&gt;&#10;  &lt;diagram name=&quot;Página-1&quot; id=&quot;f3ekU5AR_iyBwpLJQrAA&quot;&gt;&#10;    &lt;mxGraphModel dx=&quot;949&quot; dy=&quot;593&quot; grid=&quot;1&quot; gridSize=&quot;10&quot; guides=&quot;1&quot; tooltips=&quot;1&quot; connect=&quot;1&quot; arrows=&quot;1&quot; fold=&quot;1&quot; page=&quot;1&quot; pageScale=&quot;1&quot; pageWidth=&quot;827&quot; pageHeight=&quot;1169&quot; math=&quot;0&quot; shadow=&quot;0&quot;&gt;&#10;      &lt;root&gt;&#10;        &lt;mxCell id=&quot;0&quot; /&gt;&#10;        &lt;mxCell id=&quot;1&quot; parent=&quot;0&quot; /&gt;&#10;        &lt;mxCell id=&quot;RSmLNfmRkOS1nkXlO_Z5-2&quot; value=&quot;&quot; style=&quot;shape=mxgraph.networks2.icon;aspect=fixed;fillColor=#EDEDED;strokeColor=#000000;gradientColor=#5B6163;network2IconShadow=1;network2bgFillColor=none;network2Icon=mxgraph.networks2.cloud;network2IconYOffset=-0.08;network2IconW=1.0004;network2IconH=0.7222;&quot; vertex=&quot;1&quot; parent=&quot;1&quot;&gt;&#10;          &lt;mxGeometry x=&quot;440.00000000000006&quot; y=&quot;140&quot; width=&quot;50.019999999999996&quot; height=&quot;36.11&quot; as=&quot;geometry&quot; /&gt;&#10;        &lt;/mxCell&gt;&#10;        &lt;mxCell id=&quot;RSmLNfmRkOS1nkXlO_Z5-3&quot; value=&quot;&quot; style=&quot;shape=mxgraph.networks2.icon;aspect=fixed;fillColor=#EDEDED;strokeColor=#000000;gradientColor=#5B6163;network2IconShadow=1;network2bgFillColor=none;network2Icon=mxgraph.networks2.cloud;network2IconYOffset=-0.08;network2IconW=1.0004;network2IconH=0.7222;&quot; vertex=&quot;1&quot; parent=&quot;1&quot;&gt;&#10;          &lt;mxGeometry x=&quot;560&quot; y=&quot;190&quot; width=&quot;50.019999999999996&quot; height=&quot;36.11&quot; as=&quot;geometry&quot; /&gt;&#10;        &lt;/mxCell&gt;&#10;        &lt;mxCell id=&quot;RSmLNfmRkOS1nkXlO_Z5-4&quot; value=&quot;&quot; style=&quot;image;points=[];aspect=fixed;html=1;align=center;shadow=0;dashed=0;image=img/lib/allied_telesis/buildings/Building_Cluster.svg;&quot; vertex=&quot;1&quot; parent=&quot;1&quot;&gt;&#10;          &lt;mxGeometry x=&quot;390&quot; y=&quot;250&quot; width=&quot;121.2&quot; height=&quot;111&quot; as=&quot;geometry&quot; /&gt;&#10;        &lt;/mxCell&gt;&#10;        &lt;mxCell id=&quot;RSmLNfmRkOS1nkXlO_Z5-5&quot; value=&quot;&quot; style=&quot;image;points=[];aspect=fixed;html=1;align=center;shadow=0;dashed=0;image=img/lib/allied_telesis/buildings/Medium_Business_Building.svg;&quot; vertex=&quot;1&quot; parent=&quot;1&quot;&gt;&#10;          &lt;mxGeometry x=&quot;95.4&quot; y=&quot;290.8&quot; width=&quot;54.6&quot; height=&quot;70.19999999999999&quot; as=&quot;geometry&quot; /&gt;&#10;        &lt;/mxCell&gt;&#10;        &lt;mxCell id=&quot;RSmLNfmRkOS1nkXlO_Z5-6&quot; value=&quot;&quot; style=&quot;image;points=[];aspect=fixed;html=1;align=center;shadow=0;dashed=0;image=img/lib/allied_telesis/buildings/Medium_Business_Building.svg;&quot; vertex=&quot;1&quot; parent=&quot;1&quot;&gt;&#10;          &lt;mxGeometry x=&quot;150&quot; y=&quot;480&quot; width=&quot;54.6&quot; height=&quot;70.19999999999999&quot; as=&quot;geometry&quot; /&gt;&#10;        &lt;/mxCell&gt;&#10;        &lt;mxCell id=&quot;RSmLNfmRkOS1nkXlO_Z5-7&quot; value=&quot;&quot; style=&quot;image;points=[];aspect=fixed;html=1;align=center;shadow=0;dashed=0;image=img/lib/allied_telesis/buildings/Medium_Business_Building.svg;&quot; vertex=&quot;1&quot; parent=&quot;1&quot;&gt;&#10;          &lt;mxGeometry x=&quot;340&quot; y=&quot;549&quot; width=&quot;54.6&quot; height=&quot;70.19999999999999&quot; as=&quot;geometry&quot; /&gt;&#10;        &lt;/mxCell&gt;&#10;        &lt;mxCell id=&quot;RSmLNfmRkOS1nkXlO_Z5-8&quot; value=&quot;&quot; style=&quot;image;points=[];aspect=fixed;html=1;align=center;shadow=0;dashed=0;image=img/lib/allied_telesis/buildings/Medium_Business_Building.svg;&quot; vertex=&quot;1&quot; parent=&quot;1&quot;&gt;&#10;          &lt;mxGeometry x=&quot;560&quot; y=&quot;540&quot; width=&quot;54.6&quot; height=&quot;70.19999999999999&quot; as=&quot;geometry&quot; /&gt;&#10;        &lt;/mxCell&gt;&#10;      &lt;/root&gt;&#10;    &lt;/mxGraphModel&gt;&#10;  &lt;/diagram&gt;&#10;&lt;/mxfile&gt;&#10;"><defs><filter id="drawio-drop-shadow"><feGaussianBlur in="SourceAlpha" stdDeviation="1.7" result="blur"/><feOffset in="blur" dx="3" dy="3" result="offsetBlur"/><feFlood flood-color="#3D4574" flood-opacity="0.4" result="offsetColor"/><feComposite in="offsetColor" in2="offsetBlur" operator="in" result="offsetBlur"/><feBlend in="SourceGraphic" in2="offsetBlur"/></filter></defs><g filter="url(#drawio-drop-shadow)"><g data-cell-id="0"><g data-cell-id="1"><g data-cell-id="RSmLNfmRkOS1nkXlO_Z5-2"><g><path d="M 355.23 35.6 C 349.3 35.6 344.5 30.8 344.5 24.89 C 344.5 20.05 347.69 15.97 352.08 14.63 C 352.28 6.79 358.69 0.5 366.56 0.5 C 373.06 0.5 378.55 4.77 380.39 10.65 C 380.6 10.64 380.81 10.64 381.03 10.64 C 387.93 10.64 393.51 16.23 393.51 23.13 C 393.51 30.02 387.93 35.61 381.03 35.61 L 355.23 35.61 Z" fill="#ededed" stroke="none" pointer-events="all" style="fill: rgb(237, 237, 237);"/><path d="M 390.25 13.98 C 390.24 13.96 390.23 13.96 390.21 13.94 C 390.19 13.92 390.18 13.9 390.15 13.88 L 390.1 13.83 C 387.7 11.48 384.55 10.18 381.19 10.14 C 381.15 10.14 381.1 10.14 381.05 10.14 C 380.99 10.14 380.93 10.14 380.87 10.14 C 380.83 10.14 380.79 10.14 380.75 10.14 C 380.28 8.77 379.62 7.48 378.77 6.29 C 377.87 5.03 376.77 3.9 375.52 2.97 C 373.58 1.52 371.36 0.58 369.01 0.2 C 368.21 0.07 367.39 0 366.56 0 C 362.63 0 358.91 1.51 356.09 4.27 C 353.37 6.93 351.77 10.47 351.6 14.26 C 349.48 14.98 347.59 16.36 346.24 18.14 C 344.77 20.1 344 22.43 344 24.89 C 344 25 344 25.1 344 25.21 C 344.08 28.09 345.25 30.78 347.29 32.83 C 349.41 34.95 352.23 36.11 355.23 36.11 L 381.05 36.11 C 381.1 36.11 381.14 36.11 381.19 36.11 C 384.6 36.07 387.8 34.72 390.21 32.31 C 392.66 29.86 394.02 26.59 394.02 23.13 C 394.01 19.68 392.68 16.43 390.25 13.98 Z M 381.19 35.1 C 381.14 35.1 381.09 35.1 381.05 35.1 L 355.23 35.1 C 349.58 35.1 345 30.52 345 24.89 C 345 24.65 345.01 24.42 345.02 24.19 C 345.31 19.96 348.13 16.36 352.24 15.11 L 352.58 15 L 352.59 14.64 C 352.77 7.12 359.04 1 366.56 1 C 367.09 1 367.61 1.03 368.13 1.08 C 373.4 1.67 377.89 5.17 379.71 10.21 C 376.72 10.51 373.95 11.83 371.81 14.01 C 371.81 14.01 371.81 14.01 371.81 14.01 C 371.72 14.1 371.67 14.22 371.67 14.36 C 371.67 14.63 371.89 14.86 372.17 14.86 C 372.31 14.86 372.43 14.8 372.52 14.71 C 374.71 12.48 377.62 11.22 380.73 11.14 C 380.75 11.14 380.76 11.14 380.77 11.14 C 380.82 11.14 380.86 11.14 380.9 11.14 C 380.95 11.14 381 11.14 381.06 11.14 C 381.1 11.14 381.14 11.14 381.19 11.14 C 387.74 11.21 393.04 16.56 393.04 23.12 C 393.03 29.68 387.73 35.03 381.19 35.1 Z" fill="#000000" stroke="none" pointer-events="all" style="fill: rgb(0, 0, 0);"/></g></g><g data-cell-id="RSmLNfmRkOS1nkXlO_Z5-3"><g><path d="M 475.23 85.6 C 469.3 85.6 464.5 80.81 464.5 74.89 C 464.5 70.06 467.69 65.97 472.08 64.63 C 472.28 56.8 478.69 50.5 486.56 50.5 C 493.06 50.5 498.55 54.77 500.39 60.66 C 500.6 60.64 500.81 60.64 501.03 60.64 C 507.93 60.64 513.51 66.23 513.51 73.13 C 513.51 80.02 507.93 85.61 501.03 85.61 L 475.23 85.61 Z" fill="#ededed" stroke="none" pointer-events="all" style="fill: rgb(237, 237, 237);"/><path d="M 510.25 63.98 C 510.24 63.97 510.23 63.95 510.21 63.94 C 510.19 63.92 510.18 63.9 510.15 63.88 L 510.1 63.83 C 507.7 61.48 504.55 60.18 501.19 60.14 C 501.15 60.14 501.1 60.14 501.05 60.14 C 500.99 60.14 500.93 60.14 500.87 60.14 C 500.83 60.14 500.79 60.14 500.75 60.14 C 500.28 58.77 499.62 57.48 498.77 56.3 C 497.87 55.02 496.77 53.91 495.52 52.97 C 493.58 51.52 491.36 50.58 489.01 50.2 C 488.21 50.06 487.39 50 486.56 50 C 482.63 50 478.91 51.52 476.09 54.27 C 473.37 56.94 471.77 60.47 471.6 64.26 C 469.48 64.98 467.59 66.36 466.24 68.14 C 464.77 70.1 464 72.43 464 74.89 C 464 75 464 75.1 464 75.21 C 464.08 78.09 465.25 80.78 467.29 82.83 C 469.41 84.94 472.23 86.11 475.23 86.11 L 501.05 86.11 C 501.1 86.11 501.14 86.11 501.19 86.11 C 504.6 86.07 507.8 84.72 510.21 82.31 C 512.66 79.86 514.02 76.59 514.02 73.13 C 514.01 69.67 512.67 66.43 510.25 63.98 Z M 501.19 85.1 C 501.14 85.1 501.09 85.1 501.05 85.1 L 475.23 85.1 C 469.58 85.1 465 80.52 465 74.89 C 465 74.65 465.01 74.42 465.02 74.19 C 465.31 69.96 468.13 66.36 472.24 65.11 L 472.58 65 L 472.59 64.64 C 472.77 57.12 479.04 51 486.56 51 C 487.09 51 487.61 51.03 488.13 51.09 C 493.4 51.66 497.89 55.16 499.71 60.2 C 496.72 60.51 493.95 61.83 491.81 64 C 491.81 64 491.81 64 491.81 64 C 491.72 64.09 491.67 64.22 491.67 64.36 C 491.67 64.63 491.89 64.86 492.17 64.86 C 492.31 64.86 492.43 64.8 492.52 64.7 C 494.71 62.48 497.62 61.22 500.73 61.14 C 500.75 61.14 500.76 61.14 500.77 61.14 C 500.82 61.14 500.86 61.14 500.9 61.14 C 500.95 61.14 501 61.14 501.06 61.14 C 501.1 61.14 501.14 61.14 501.19 61.14 C 507.74 61.22 513.04 66.56 513.04 73.12 C 513.03 79.69 507.73 85.03 501.19 85.1 Z" fill="#000000" stroke="none" pointer-events="all" style="fill: rgb(0, 0, 0);"/></g></g><g data-cell-id="RSmLNfmRkOS1nkXlO_Z5-4"><g><g><svg viewBox="0 0 201.889 184.58" xmlns="http://www.w3.org/2000/svg" x="293.5" y="109.5" width="121.2" height="111" style="font-family: initial;"><path fill="#6089b1" d="M58.628.108L15.65 22.92c.155-.084.345-.116.55-.1.22.02.467.105.725.264L59.907.266C59.65.11 59.405.023 59.18.004a.96.96 0 0 0-.552.104z"/><defs><filter height="27.221" width="44.989" y="95.283" x="65.374" filterUnits="userSpaceOnUse" id="A"><feColorMatrix values="1 0 0 0 0 0 1 0 0 0 0 0 1 0 0 0 0 0 1 0"/></filter></defs><mask id="B" height="27.221" width="44.989" y="95.283" x="65.374" maskUnits="userSpaceOnUse"><g filter="url(#A)"><path fill="#fff" d="M67.38 118.098c0 2.218-.77 3.75-2.006 4.406l42.984-22.818c1.235-.655 2.008-2.183 2.005-4.403"/></g></mask><path fill="#1c5a84" mask="url(#B)" d="M67.38 118.098l42.983-22.815c.002 2.22-.77 3.748-2.005 4.403l-42.984 22.818c1.235-.657 2.006-2.187 2.006-4.406"/><path fill="#276e9f" d="M16.924 23.08l48.54 29.165 42.985-22.814L59.908.266z"/><path fill="#19557d" d="M67.335 55.617l42.98-22.814.047 62.48-42.983 22.815z"/><path fill="#1c5a84" d="M108.45 29.434L65.465 52.246c1.087.71 1.87 2.314 1.87 3.37l42.98-22.814c0-1.833-.898-2.77-1.867-3.37z"/><path fill="#1f608c" d="M65.464 52.246c1.032.62 1.87 2.13 1.87 3.37l.045 62.48c.003 4.234-2.816 5.968-6.29 3.875L21.4 98.132c-3.474-2.09-6.295-7.214-6.295-11.446l-.047-62.48c0-1.24.833-1.744 1.865-1.125l48.54 29.165z"/><path fill="#fefefe" d="M63.694 75.625l-9.16-5.505V56.567l9.16 5.5zm-12.27-7.375l-9.16-5.503V49.194l9.16 5.5zm-20.74 7.704v-13.55l9.166 5.5v13.544zm-3.17-22.07l-9.164-5.507V34.83l9.164 5.508zm0 20.165l-9.164-5.507V54.997l9.164 5.504zm-.358 19.537l-9.16-5.506V74.533l9.16 5.507zm3.527-51.347l9.166 5.503v13.554l-9.166-5.506z"/><g fill="#d6dee6"><path d="M55.9 58.748l7.028 4.233-.015 8.7s-.432-5.094-3.42-8.993c-2.74-3.57-3.594-3.93-3.594-3.93M19.617 36.872l7.025 4.24-.016 8.688s-.43-5.094-3.418-8.997c-2.74-3.573-3.6-3.93-3.6-3.93"/><path d="M43.64 51.353l7.025 4.24-.016 8.686s-.426-5.1-3.416-9c-2.74-3.573-3.593-3.936-3.593-3.936M32.07 44.38l7.03 4.243-.014 8.685s-.435-5.094-3.42-9c-2.74-3.578-3.595-3.937-3.595-3.937m-.03 20.02l7.032 4.232-.02 8.7s-.43-5.094-3.418-8.996c-2.74-3.58-3.595-3.935-3.595-3.935m-12.456-7.51l7.03 4.235-.02 8.694s-.427-5.096-3.416-8.998c-2.743-3.576-3.594-3.93-3.594-3.93"/></g><path fill="#6089b1" d="M150.155 55.097l-42.98 22.812c.16-.085.344-.116.558-.098s.46.104.72.262l42.982-22.817c-.258-.156-.503-.242-.725-.263-.208-.016-.392.018-.553.104z"/><defs><filter height="27.219" width="44.987" y="150.272" x="156.902" filterUnits="userSpaceOnUse" id="C"><feColorMatrix values="1 0 0 0 0 0 1 0 0 0 0 0 1 0 0 0 0 0 1 0"/></filter></defs><mask id="D" height="27.219" width="44.987" y="150.272" x="156.902" maskUnits="userSpaceOnUse"><g filter="url(#C)"><path fill="#fff" d="M158.908 173.09c0 2.214-.774 3.746-2.007 4.403l42.984-22.814c1.233-.657 2.005-2.187 2.004-4.406"/></g></mask><path fill="#1c5a84" mask="url(#D)" d="M158.908 173.09l42.98-22.817c.001 2.22-.77 3.75-2.004 4.406l-42.983 22.813c1.233-.656 2.006-2.188 2.006-4.402"/><path fill="#276e9f" d="M108.45 78.073l42.982-22.816 48.542 29.165-42.986 22.814z"/><path fill="#19557d" d="M158.86 110.61l42.98-22.816.048 62.48-42.98 22.817z"/><path fill="#1c5a84" d="M199.975 84.422l-42.986 22.814c1.173.804 1.87 2.322 1.87 3.373l42.982-22.816c0-1.52-.9-2.763-1.867-3.37z"/><path fill="#1f608c" d="M156.99 107.236c1.032.62 1.87 2.13 1.872 3.373l.046 62.48c.003 4.23-2.816 5.964-6.3 3.875l-39.69-23.843c-3.476-2.088-6.297-7.214-6.3-11.444l-.045-62.482c0-1.24.833-1.74 1.867-1.123l48.538 29.163z"/><path fill="#fefefe" d="M155.22 130.613l-9.16-5.504v-13.55l9.16 5.508zm0 20.164l-9.16-5.502v-13.547l9.16 5.502zm0 19.753l-9.16-5.505V151.48l9.16 5.504zm-12.272-47.288l-9.16-5.506v-13.55l9.16 5.507zm0 20.168l-9.16-5.5v-13.55l9.16 5.5zm-20.742-12.465v-13.55l9.167 5.506v13.546zm-3.166-22.07l-9.163-5.5V89.82l9.163 5.5zm3.166-11.645l9.167 5.503v13.553l-9.167-5.504zm1.188 61.792v-20.368l7.678 4.6v20.37zm9.766 5.865V144.52l7.454 4.478v20.37z"/><path fill="#d6dee6" d="M147.424 113.738l7.028 4.232-.016 8.7s-.43-5.092-3.416-9c-2.74-3.574-3.596-3.932-3.596-3.932m-36.282-21.876l7.025 4.238-.013 8.687s-.43-5.1-3.42-8.992c-2.74-3.572-3.592-3.933-3.592-3.933m36.25 41.888l7.028 4.236-.02 8.698s-.423-5.098-3.412-8.997c-2.74-3.577-3.597-3.937-3.597-3.937m-12.23-27.407l7.027 4.238-.016 8.688s-.427-5.093-3.414-9c-2.742-3.575-3.597-3.935-3.597-3.935m-.03 20.018l7.025 4.236-.016 8.694s-.427-5.1-3.413-8.994c-2.746-3.58-3.596-3.936-3.596-3.936m-11.54-26.995l7.034 4.244-.017 8.688s-.432-5.095-3.42-8.994c-2.74-3.577-3.598-3.938-3.598-3.938m-.026 20.023l7.03 4.233-.017 8.697s-.43-5.092-3.418-8.993c-2.744-3.58-3.594-3.937-3.594-3.937m23.795 34.33l7.027 4.238-.016 8.693s-.428-5.097-3.417-8.997c-2.74-3.572-3.594-3.934-3.594-3.934"/><path fill="#6089b1" d="M46.018 61.226c-.182-.05-.462-.097-.726 0l-.01.005c-.033.012-.067.024-.1.042L.635 84.92c.036-.02.077-.034.112-.048.263-.094.542-.05.725 0 .113.032.192.068.207.076L46.226 61.3c-.017-.007-.095-.042-.208-.074z"/><path fill="#276e9f" d="M1.678 84.948L46.226 61.3l12.548 7.54-44.546 23.644z"/><g fill="#6089b1"><path d="M59.283 60.287L14.735 83.934c.03-.017.058-.03.088-.04l44.46-23.608z"/><path d="M59.9 60.25c-.198-.06-.38-.06-.54 0L14.824 83.895c.16-.058.346-.058.502-.013a1.72 1.72 0 0 1 .401.174L60.27 60.4a1.47 1.47 0 0 0-.361-.161z"/></g><defs><filter height="27.69" width="46.396" y="156.557" x="77.102" filterUnits="userSpaceOnUse" id="E"><feColorMatrix values="1 0 0 0 0 0 1 0 0 0 0 0 1 0 0 0 0 0 1 0"/></filter></defs><mask id="F" height="27.69" width="46.396" y="156.557" x="77.102" maskUnits="userSpaceOnUse"><g filter="url(#E)"><path fill="#fff" d="M78.95 180.196c.003 2.038-.71 3.45-1.85 4.05l44.546-23.64c1.14-.605 1.853-2.012 1.85-4.05"/></g></mask><path fill="#1c5a84" mask="url(#F)" d="M78.95 180.197l44.547-23.64c.002 2.037-.7 3.445-1.85 4.05l-44.545 23.64c1.14-.602 1.852-2.013 1.85-4.05"/><path fill="#276e9f" d="M15.726 84.056L60.27 60.4l44.78 26.9-44.545 23.64z"/><path fill="#1a5881" d="M61.986 113.628L106.53 89.98l.007 7.56-44.547 23.644z"/><g fill="#1c5a84"><path d="M105.598 87.772l-.164-.165a2.11 2.11 0 0 0-.383-.288L60.505 110.96c.134.08.26.183.383.292L74 104.298l-13.1 6.955a1.78 1.78 0 0 1 .162.163l8.022-4.258-8.022 4.258c.14.15.268.318.382.498l44.547-23.65a3.62 3.62 0 0 0-.382-.493z"/><path d="M106.17 88.605l-.088-.163-.103-.177-44.547 23.65.105.173.087.162 3.733-1.98-3.733 1.982.096.21 44.547-23.645-.097-.21z"/><path d="M106.51 89.658c-.022-.17-.064-.348-.12-.524l-41.012 21.77 41.012-21.77-.12-.32-44.547 23.645.122.32a3.26 3.26 0 0 1 .121.523L74.2 106.81l-12.235 6.495c.013.11.02.217.022.325l44.543-23.65a2.56 2.56 0 0 0-.021-.322z"/></g><path fill="#276e9f" d="M61.99 121.184l44.547-23.644 14.07 8.454-44.546 23.644z"/><path fill="#1a5881" d="M78.92 134.382l44.545-23.646.032 45.82-44.547 23.64z"/><defs><filter height="100.73" width="78.951" y="83.85" x="0" filterUnits="userSpaceOnUse" id="G"><feColorMatrix values="1 0 0 0 0 0 1 0 0 0 0 0 1 0 0 0 0 0 1 0"/></filter></defs><mask id="H" height="100.73" width="78.951" y="83.85" x="0" maskUnits="userSpaceOnUse"><g filter="url(#G)"><path fill="#fff" d="M0 83.85h78.95v100.73H0z"/></g></mask><path fill="#1f5f8b" mask="url(#H)" d="M60.506 110.96c.816.492 1.478 1.685 1.48 2.667l.003 7.556 14.07 8.454c2.858 1.717 2.862 4.592 2.862 4.744l.03 45.814c.003 3.905-2.614 5.5-5.856 3.553l-67.197-40.37C2.663 141.432.036 136.7.033 132.784L0 86.6c0-2.417 1.596-1.69 1.678-1.652l12.55 7.538-.005-7.393c.03-1.127.686-1.526 1.504-1.036l44.78 26.905z"/><path fill="#1c5a84" d="M120.605 105.993L76.06 129.64c1.56.896 2.86 2.88 2.86 4.744l44.545-23.646c.001-1.95-1.24-3.657-2.86-4.744z"/><path fill="#fefefe" d="M75.417 147.69l-8.632-5.185v-12.757l8.632 5.182v12.76zm0 19.007l-8.632-5.187v-12.767l8.632 5.184v12.77zM59.19 130.248l-8.628-5.185v-12.766l8.628 5.185v12.766zm0 19l-8.628-5.19v-12.763l8.628 5.186v12.766zm0 18.605l-8.628-5.185v-12.764l8.628 5.185v12.764zm-11.562-44.552l-8.63-5.188v-12.767l8.63 5.19v12.766zm0 19l-8.63-5.187V124.35l8.63 5.188V142.3zm-19.54-11.742v-12.764l8.636 5.19v12.763l-8.636-5.188zm-2.984-20.794l-8.635-5.185V91.812L25.102 97v12.766zm0 19l-8.635-5.19v-12.76L25.102 116v12.764zm-.337 18.405l-8.633-5.185V129.22l8.633 5.19v12.76zm3.32-48.378l8.636 5.19v12.766l-8.636-5.2V98.79zm-16.662 10.45l-8.636-5.2V91.293l8.636 5.187v12.76zm0 19l-8.636-5.19v-12.765l8.636 5.2v12.764zm17.78 28.77v-19.2l7.234 4.347v19.187l-7.234-4.344zm9.2 5.528v-19.188l7.02 4.218v19.192l-7.02-4.222z"/><g fill="#d6dee6"><path d="M51.845 114.566l6.62 3.992-.016 8.186s-.403-4.798-3.217-8.472c-2.583-3.367-3.388-3.706-3.388-3.706M17.662 93.96l6.62 4-.018 8.187s-.405-4.797-3.22-8.474c-2.583-3.366-3.384-3.702-3.384-3.702m34.152 39.463l6.623 3.992-.016 8.192s-.402-4.8-3.217-8.475c-2.58-3.373-3.4-3.7-3.4-3.7m-11.5-25.82l6.62 4-.015 8.185s-.404-4.797-3.218-8.47c-2.583-3.366-3.388-3.707-3.388-3.707m-.03 18.862l6.624 4-.016 8.2s-.404-4.802-3.217-8.474c-2.583-3.37-3.4-3.708-3.4-3.708m-10.865-25.426l6.624 3.992-.018 8.186s-.405-4.797-3.218-8.473c-2.583-3.368-3.388-3.705-3.388-3.705m-.03 18.856L36 123.885l-.015 8.192s-.407-4.802-3.22-8.475c-2.582-3.374-3.387-3.7-3.387-3.7m-11.748-7.074l6.62 3.993-.014 8.2s-.404-4.804-3.22-8.476c-2.582-3.37-3.385-3.708-3.385-3.708"/><path d="M51.784 152.238l6.623 4-.015 8.2s-.403-4.798-3.218-8.473c-2.58-3.365-3.4-3.708-3.4-3.708M17.392 131.5l6.62 4-.016 8.2s-.403-4.8-3.215-8.473c-2.587-3.37-3.4-3.706-3.4-3.706M4.1 93.475l6.618 4-.015 8.188s-.4-4.8-3.215-8.47c-2.583-3.372-3.388-3.7-3.388-3.7m-.03 19.132l6.62 4-.016 8.192s-.402-4.798-3.216-8.474c-2.585-3.368-3.388-3.707-3.388-3.707m63.964 19.4l6.624 4-.018 8.2s-.4-4.797-3.215-8.467c-2.585-3.374-3.4-3.712-3.4-3.712m-.03 19.13l6.62 3.992-.014 8.2s-.4-4.8-3.22-8.474c-2.584-3.368-3.388-3.707-3.388-3.707"/></g></svg></g></g></g><g data-cell-id="RSmLNfmRkOS1nkXlO_Z5-5"><g><g><svg viewBox="0 0 90.411 116.551" xmlns="http://www.w3.org/2000/svg" x="-1.1" y="150.3" width="54.6" height="70.2" style="font-family: initial;"><defs><filter height="21.893" width="41.986" y="0" x=".559" filterUnits="userSpaceOnUse" id="A"><feColorMatrix values="1 0 0 0 0 0 1 0 0 0 0 0 1 0 0 0 0 0 1 0"/></filter></defs><mask id="B" height="21.893" width="41.986" y="0" x=".559" maskUnits="userSpaceOnUse"><g filter="url(#A)"><path fill="#fff" d="M41.334.1L.558 21.744c.317-.168.743-.13 1.21.15L42.546.25c-.284-.17-.552-.25-.8-.25-.155 0-.297.034-.422.1"/></g></mask><path fill="#447ca8" mask="url(#B)" d="M41.855.003l-.004.002c-.192-.018-.367.015-.517.095L.56 21.743c.15-.08.327-.113.52-.096.2.02.444.1.69.246L42.545.25c-.244-.148-.478-.228-.7-.248z"/><defs><filter height="25.822" width="42.679" y="90.39" x="47.731" filterUnits="userSpaceOnUse" id="C"><feColorMatrix values="1 0 0 0 0 0 1 0 0 0 0 0 1 0 0 0 0 0 1 0"/></filter></defs><mask id="D" height="25.822" width="42.679" y="90.39" x="47.731" maskUnits="userSpaceOnUse"><g filter="url(#C)"><path fill="#fff" d="M49.634 112.034c.002 2.102-.73 3.556-1.902 4.178l40.775-21.645c1.172-.622 1.904-2.075 1.903-4.176"/></g></mask><path fill="#1c5a84" mask="url(#D)" d="M49.634 112.034L90.4 90.4c.001 2.102-.732 3.555-1.903 4.177L47.73 116.212c1.172-.622 1.904-2.075 1.903-4.178"/><path fill="#276e9f" d="M1.77 21.895l46.05 27.668L88.593 27.92 42.545.25z"/><path fill="#19557d" d="M90.41 90.39V31.12L49.59 52.764l.043 59.27z"/><defs><filter height="24.844" width="42.549" y="27.919" x="47.818" filterUnits="userSpaceOnUse" id="E"><feColorMatrix values="1 0 0 0 0 0 1 0 0 0 0 0 1 0 0 0 0 0 1 0"/></filter></defs><mask id="F" height="24.844" width="42.549" y="27.919" x="47.818" maskUnits="userSpaceOnUse"><g filter="url(#E)"><path fill="#fff" d="M47.818 49.563c.98.588 1.772 2.02 1.773 3.2L90.366 31.12c0-1.18-.793-2.61-1.773-3.2"/></g></mask><path fill="#4d7ea6" mask="url(#F)" d="M88.594 27.92L47.818 49.563c1.12.772 1.682 2 1.773 3.2l40.775-21.645c.001-1.354-.78-2.41-1.772-3.198z"/><path fill="#1f608c" d="M47.818 49.563c.98.588 1.772 2.02 1.772 3.2l.044 59.27c.003 4.013-2.67 5.66-5.967 3.678L6.02 93.09C2.72 91.11.044 86.25.04 82.235L0 22.965c-.001-1.18.79-1.66 1.77-1.07l46.05 27.67z"/><path fill="#fefefe" d="M46.138 71.74l-8.7-5.222V53.665l8.7 5.22V71.74zm0 19.13l-8.7-5.222v-12.85l8.7 5.22V90.87zm0 18.736l-8.7-5.22V91.533l8.7 5.222v12.85zm-11.64-44.86l-8.692-5.222V46.67l8.692 5.223v12.853zm0 19.13l-8.692-5.224V65.8l8.692 5.223v12.852zM14.82 72.052V59.2l8.695 5.225v12.852l-8.695-5.225zm-3.006-20.936L3.12 45.892V33.04l8.693 5.223v12.854zm0 19.13L3.12 65.022V52.17l8.693 5.223v12.852zm-.34 18.533l-8.69-5.223V70.704l8.69 5.223V88.78zm3.345-48.71l8.695 5.225v12.854l-8.695-5.224V40.068zM15.945 98.7V79.367l7.284 4.377v19.32L15.945 98.7zm9.265 5.566V84.933l7.07 4.25v19.323l-7.07-4.25z"/><path fill="#d6dee6" d="M38.742 55.73l6.667 4.02-.015 8.25s-.406-4.83-3.24-8.53c-2.6-3.4-3.412-3.73-3.412-3.73M4.323 34.98L11 39l-.016 8.24s-.406-4.83-3.242-8.53c-2.6-3.4-3.408-3.73-3.408-3.73m34.388 39.738l6.667 4.02-.016 8.247s-.404-4.832-3.24-8.532c-2.6-3.394-3.412-3.734-3.412-3.734M27.1 48.717l6.667 4.02-.016 8.24s-.405-4.83-3.238-8.528c-2.6-3.392-3.413-3.732-3.413-3.732m-.02 18.99l6.667 4.02-.016 8.247s-.405-4.833-3.238-8.532c-2.602-3.394-3.413-3.734-3.413-3.734M16.14 42.103l6.67 4.02-.016 8.24s-.4-4.83-3.243-8.53c-2.6-3.4-3.4-3.73-3.4-3.73m-.033 18.99l6.67 4.02-.016 8.246s-.408-4.833-3.24-8.534C16.92 61.43 16.1 61.09 16.1 61.09M4.293 53.97L10.96 58l-.016 8.247s-.406-4.833-3.24-8.535c-2.6-3.392-3.4-3.73-3.4-3.73m34.4 39.688l6.667 4.02-.016 8.245s-.404-4.832-3.24-8.532c-2.6-3.4-3.4-3.733-3.4-3.733M4.053 72.787l6.666 4.02-.016 8.244s-.407-4.832-3.237-8.53c-2.603-3.4-3.413-3.732-3.413-3.732"/></svg></g></g></g><g data-cell-id="RSmLNfmRkOS1nkXlO_Z5-6"><g><g><svg viewBox="0 0 90.411 116.551" xmlns="http://www.w3.org/2000/svg" x="53.5" y="339.5" width="54.6" height="70.2" style="font-family: initial;"><defs><filter height="21.893" width="41.986" y="0" x=".559" filterUnits="userSpaceOnUse" id="A"><feColorMatrix values="1 0 0 0 0 0 1 0 0 0 0 0 1 0 0 0 0 0 1 0"/></filter></defs><mask id="B" height="21.893" width="41.986" y="0" x=".559" maskUnits="userSpaceOnUse"><g filter="url(#A)"><path fill="#fff" d="M41.334.1L.558 21.744c.317-.168.743-.13 1.21.15L42.546.25c-.284-.17-.552-.25-.8-.25-.155 0-.297.034-.422.1"/></g></mask><path fill="#447ca8" mask="url(#B)" d="M41.855.003l-.004.002c-.192-.018-.367.015-.517.095L.56 21.743c.15-.08.327-.113.52-.096.2.02.444.1.69.246L42.545.25c-.244-.148-.478-.228-.7-.248z"/><defs><filter height="25.822" width="42.679" y="90.39" x="47.731" filterUnits="userSpaceOnUse" id="C"><feColorMatrix values="1 0 0 0 0 0 1 0 0 0 0 0 1 0 0 0 0 0 1 0"/></filter></defs><mask id="D" height="25.822" width="42.679" y="90.39" x="47.731" maskUnits="userSpaceOnUse"><g filter="url(#C)"><path fill="#fff" d="M49.634 112.034c.002 2.102-.73 3.556-1.902 4.178l40.775-21.645c1.172-.622 1.904-2.075 1.903-4.176"/></g></mask><path fill="#1c5a84" mask="url(#D)" d="M49.634 112.034L90.4 90.4c.001 2.102-.732 3.555-1.903 4.177L47.73 116.212c1.172-.622 1.904-2.075 1.903-4.178"/><path fill="#276e9f" d="M1.77 21.895l46.05 27.668L88.593 27.92 42.545.25z"/><path fill="#19557d" d="M90.41 90.39V31.12L49.59 52.764l.043 59.27z"/><defs><filter height="24.844" width="42.549" y="27.919" x="47.818" filterUnits="userSpaceOnUse" id="E"><feColorMatrix values="1 0 0 0 0 0 1 0 0 0 0 0 1 0 0 0 0 0 1 0"/></filter></defs><mask id="F" height="24.844" width="42.549" y="27.919" x="47.818" maskUnits="userSpaceOnUse"><g filter="url(#E)"><path fill="#fff" d="M47.818 49.563c.98.588 1.772 2.02 1.773 3.2L90.366 31.12c0-1.18-.793-2.61-1.773-3.2"/></g></mask><path fill="#4d7ea6" mask="url(#F)" d="M88.594 27.92L47.818 49.563c1.12.772 1.682 2 1.773 3.2l40.775-21.645c.001-1.354-.78-2.41-1.772-3.198z"/><path fill="#1f608c" d="M47.818 49.563c.98.588 1.772 2.02 1.772 3.2l.044 59.27c.003 4.013-2.67 5.66-5.967 3.678L6.02 93.09C2.72 91.11.044 86.25.04 82.235L0 22.965c-.001-1.18.79-1.66 1.77-1.07l46.05 27.67z"/><path fill="#fefefe" d="M46.138 71.74l-8.7-5.222V53.665l8.7 5.22V71.74zm0 19.13l-8.7-5.222v-12.85l8.7 5.22V90.87zm0 18.736l-8.7-5.22V91.533l8.7 5.222v12.85zm-11.64-44.86l-8.692-5.222V46.67l8.692 5.223v12.853zm0 19.13l-8.692-5.224V65.8l8.692 5.223v12.852zM14.82 72.052V59.2l8.695 5.225v12.852l-8.695-5.225zm-3.006-20.936L3.12 45.892V33.04l8.693 5.223v12.854zm0 19.13L3.12 65.022V52.17l8.693 5.223v12.852zm-.34 18.533l-8.69-5.223V70.704l8.69 5.223V88.78zm3.345-48.71l8.695 5.225v12.854l-8.695-5.224V40.068zM15.945 98.7V79.367l7.284 4.377v19.32L15.945 98.7zm9.265 5.566V84.933l7.07 4.25v19.323l-7.07-4.25z"/><path fill="#d6dee6" d="M38.742 55.73l6.667 4.02-.015 8.25s-.406-4.83-3.24-8.53c-2.6-3.4-3.412-3.73-3.412-3.73M4.323 34.98L11 39l-.016 8.24s-.406-4.83-3.242-8.53c-2.6-3.4-3.408-3.73-3.408-3.73m34.388 39.738l6.667 4.02-.016 8.247s-.404-4.832-3.24-8.532c-2.6-3.394-3.412-3.734-3.412-3.734M27.1 48.717l6.667 4.02-.016 8.24s-.405-4.83-3.238-8.528c-2.6-3.392-3.413-3.732-3.413-3.732m-.02 18.99l6.667 4.02-.016 8.247s-.405-4.833-3.238-8.532c-2.602-3.394-3.413-3.734-3.413-3.734M16.14 42.103l6.67 4.02-.016 8.24s-.4-4.83-3.243-8.53c-2.6-3.4-3.4-3.73-3.4-3.73m-.033 18.99l6.67 4.02-.016 8.246s-.408-4.833-3.24-8.534C16.92 61.43 16.1 61.09 16.1 61.09M4.293 53.97L10.96 58l-.016 8.247s-.406-4.833-3.24-8.535c-2.6-3.392-3.4-3.73-3.4-3.73m34.4 39.688l6.667 4.02-.016 8.245s-.404-4.832-3.24-8.532c-2.6-3.4-3.4-3.733-3.4-3.733M4.053 72.787l6.666 4.02-.016 8.244s-.407-4.832-3.237-8.53c-2.603-3.4-3.413-3.732-3.413-3.732"/></svg></g></g></g><g data-cell-id="RSmLNfmRkOS1nkXlO_Z5-7"><g><g><svg viewBox="0 0 90.411 116.551" xmlns="http://www.w3.org/2000/svg" x="243.5" y="408.5" width="54.6" height="70.2" style="font-family: initial;"><defs><filter height="21.893" width="41.986" y="0" x=".559" filterUnits="userSpaceOnUse" id="A"><feColorMatrix values="1 0 0 0 0 0 1 0 0 0 0 0 1 0 0 0 0 0 1 0"/></filter></defs><mask id="B" height="21.893" width="41.986" y="0" x=".559" maskUnits="userSpaceOnUse"><g filter="url(#A)"><path fill="#fff" d="M41.334.1L.558 21.744c.317-.168.743-.13 1.21.15L42.546.25c-.284-.17-.552-.25-.8-.25-.155 0-.297.034-.422.1"/></g></mask><path fill="#447ca8" mask="url(#B)" d="M41.855.003l-.004.002c-.192-.018-.367.015-.517.095L.56 21.743c.15-.08.327-.113.52-.096.2.02.444.1.69.246L42.545.25c-.244-.148-.478-.228-.7-.248z"/><defs><filter height="25.822" width="42.679" y="90.39" x="47.731" filterUnits="userSpaceOnUse" id="C"><feColorMatrix values="1 0 0 0 0 0 1 0 0 0 0 0 1 0 0 0 0 0 1 0"/></filter></defs><mask id="D" height="25.822" width="42.679" y="90.39" x="47.731" maskUnits="userSpaceOnUse"><g filter="url(#C)"><path fill="#fff" d="M49.634 112.034c.002 2.102-.73 3.556-1.902 4.178l40.775-21.645c1.172-.622 1.904-2.075 1.903-4.176"/></g></mask><path fill="#1c5a84" mask="url(#D)" d="M49.634 112.034L90.4 90.4c.001 2.102-.732 3.555-1.903 4.177L47.73 116.212c1.172-.622 1.904-2.075 1.903-4.178"/><path fill="#276e9f" d="M1.77 21.895l46.05 27.668L88.593 27.92 42.545.25z"/><path fill="#19557d" d="M90.41 90.39V31.12L49.59 52.764l.043 59.27z"/><defs><filter height="24.844" width="42.549" y="27.919" x="47.818" filterUnits="userSpaceOnUse" id="E"><feColorMatrix values="1 0 0 0 0 0 1 0 0 0 0 0 1 0 0 0 0 0 1 0"/></filter></defs><mask id="F" height="24.844" width="42.549" y="27.919" x="47.818" maskUnits="userSpaceOnUse"><g filter="url(#E)"><path fill="#fff" d="M47.818 49.563c.98.588 1.772 2.02 1.773 3.2L90.366 31.12c0-1.18-.793-2.61-1.773-3.2"/></g></mask><path fill="#4d7ea6" mask="url(#F)" d="M88.594 27.92L47.818 49.563c1.12.772 1.682 2 1.773 3.2l40.775-21.645c.001-1.354-.78-2.41-1.772-3.198z"/><path fill="#1f608c" d="M47.818 49.563c.98.588 1.772 2.02 1.772 3.2l.044 59.27c.003 4.013-2.67 5.66-5.967 3.678L6.02 93.09C2.72 91.11.044 86.25.04 82.235L0 22.965c-.001-1.18.79-1.66 1.77-1.07l46.05 27.67z"/><path fill="#fefefe" d="M46.138 71.74l-8.7-5.222V53.665l8.7 5.22V71.74zm0 19.13l-8.7-5.222v-12.85l8.7 5.22V90.87zm0 18.736l-8.7-5.22V91.533l8.7 5.222v12.85zm-11.64-44.86l-8.692-5.222V46.67l8.692 5.223v12.853zm0 19.13l-8.692-5.224V65.8l8.692 5.223v12.852zM14.82 72.052V59.2l8.695 5.225v12.852l-8.695-5.225zm-3.006-20.936L3.12 45.892V33.04l8.693 5.223v12.854zm0 19.13L3.12 65.022V52.17l8.693 5.223v12.852zm-.34 18.533l-8.69-5.223V70.704l8.69 5.223V88.78zm3.345-48.71l8.695 5.225v12.854l-8.695-5.224V40.068zM15.945 98.7V79.367l7.284 4.377v19.32L15.945 98.7zm9.265 5.566V84.933l7.07 4.25v19.323l-7.07-4.25z"/><path fill="#d6dee6" d="M38.742 55.73l6.667 4.02-.015 8.25s-.406-4.83-3.24-8.53c-2.6-3.4-3.412-3.73-3.412-3.73M4.323 34.98L11 39l-.016 8.24s-.406-4.83-3.242-8.53c-2.6-3.4-3.408-3.73-3.408-3.73m34.388 39.738l6.667 4.02-.016 8.247s-.404-4.832-3.24-8.532c-2.6-3.394-3.412-3.734-3.412-3.734M27.1 48.717l6.667 4.02-.016 8.24s-.405-4.83-3.238-8.528c-2.6-3.392-3.413-3.732-3.413-3.732m-.02 18.99l6.667 4.02-.016 8.247s-.405-4.833-3.238-8.532c-2.602-3.394-3.413-3.734-3.413-3.734M16.14 42.103l6.67 4.02-.016 8.24s-.4-4.83-3.243-8.53c-2.6-3.4-3.4-3.73-3.4-3.73m-.033 18.99l6.67 4.02-.016 8.246s-.408-4.833-3.24-8.534C16.92 61.43 16.1 61.09 16.1 61.09M4.293 53.97L10.96 58l-.016 8.247s-.406-4.833-3.24-8.535c-2.6-3.392-3.4-3.73-3.4-3.73m34.4 39.688l6.667 4.02-.016 8.245s-.404-4.832-3.24-8.532c-2.6-3.4-3.4-3.733-3.4-3.733M4.053 72.787l6.666 4.02-.016 8.244s-.407-4.832-3.237-8.53c-2.603-3.4-3.413-3.732-3.413-3.732"/></svg></g></g></g><g data-cell-id="RSmLNfmRkOS1nkXlO_Z5-8"><g><g><svg viewBox="0 0 90.411 116.551" xmlns="http://www.w3.org/2000/svg" x="463.5" y="399.5" width="54.6" height="70.2" style="font-family: initial;"><defs><filter height="21.893" width="41.986" y="0" x=".559" filterUnits="userSpaceOnUse" id="A"><feColorMatrix values="1 0 0 0 0 0 1 0 0 0 0 0 1 0 0 0 0 0 1 0"/></filter></defs><mask id="B" height="21.893" width="41.986" y="0" x=".559" maskUnits="userSpaceOnUse"><g filter="url(#A)"><path fill="#fff" d="M41.334.1L.558 21.744c.317-.168.743-.13 1.21.15L42.546.25c-.284-.17-.552-.25-.8-.25-.155 0-.297.034-.422.1"/></g></mask><path fill="#447ca8" mask="url(#B)" d="M41.855.003l-.004.002c-.192-.018-.367.015-.517.095L.56 21.743c.15-.08.327-.113.52-.096.2.02.444.1.69.246L42.545.25c-.244-.148-.478-.228-.7-.248z"/><defs><filter height="25.822" width="42.679" y="90.39" x="47.731" filterUnits="userSpaceOnUse" id="C"><feColorMatrix values="1 0 0 0 0 0 1 0 0 0 0 0 1 0 0 0 0 0 1 0"/></filter></defs><mask id="D" height="25.822" width="42.679" y="90.39" x="47.731" maskUnits="userSpaceOnUse"><g filter="url(#C)"><path fill="#fff" d="M49.634 112.034c.002 2.102-.73 3.556-1.902 4.178l40.775-21.645c1.172-.622 1.904-2.075 1.903-4.176"/></g></mask><path fill="#1c5a84" mask="url(#D)" d="M49.634 112.034L90.4 90.4c.001 2.102-.732 3.555-1.903 4.177L47.73 116.212c1.172-.622 1.904-2.075 1.903-4.178"/><path fill="#276e9f" d="M1.77 21.895l46.05 27.668L88.593 27.92 42.545.25z"/><path fill="#19557d" d="M90.41 90.39V31.12L49.59 52.764l.043 59.27z"/><defs><filter height="24.844" width="42.549" y="27.919" x="47.818" filterUnits="userSpaceOnUse" id="E"><feColorMatrix values="1 0 0 0 0 0 1 0 0 0 0 0 1 0 0 0 0 0 1 0"/></filter></defs><mask id="F" height="24.844" width="42.549" y="27.919" x="47.818" maskUnits="userSpaceOnUse"><g filter="url(#E)"><path fill="#fff" d="M47.818 49.563c.98.588 1.772 2.02 1.773 3.2L90.366 31.12c0-1.18-.793-2.61-1.773-3.2"/></g></mask><path fill="#4d7ea6" mask="url(#F)" d="M88.594 27.92L47.818 49.563c1.12.772 1.682 2 1.773 3.2l40.775-21.645c.001-1.354-.78-2.41-1.772-3.198z"/><path fill="#1f608c" d="M47.818 49.563c.98.588 1.772 2.02 1.772 3.2l.044 59.27c.003 4.013-2.67 5.66-5.967 3.678L6.02 93.09C2.72 91.11.044 86.25.04 82.235L0 22.965c-.001-1.18.79-1.66 1.77-1.07l46.05 27.67z"/><path fill="#fefefe" d="M46.138 71.74l-8.7-5.222V53.665l8.7 5.22V71.74zm0 19.13l-8.7-5.222v-12.85l8.7 5.22V90.87zm0 18.736l-8.7-5.22V91.533l8.7 5.222v12.85zm-11.64-44.86l-8.692-5.222V46.67l8.692 5.223v12.853zm0 19.13l-8.692-5.224V65.8l8.692 5.223v12.852zM14.82 72.052V59.2l8.695 5.225v12.852l-8.695-5.225zm-3.006-20.936L3.12 45.892V33.04l8.693 5.223v12.854zm0 19.13L3.12 65.022V52.17l8.693 5.223v12.852zm-.34 18.533l-8.69-5.223V70.704l8.69 5.223V88.78zm3.345-48.71l8.695 5.225v12.854l-8.695-5.224V40.068zM15.945 98.7V79.367l7.284 4.377v19.32L15.945 98.7zm9.265 5.566V84.933l7.07 4.25v19.323l-7.07-4.25z"/><path fill="#d6dee6" d="M38.742 55.73l6.667 4.02-.015 8.25s-.406-4.83-3.24-8.53c-2.6-3.4-3.412-3.73-3.412-3.73M4.323 34.98L11 39l-.016 8.24s-.406-4.83-3.242-8.53c-2.6-3.4-3.408-3.73-3.408-3.73m34.388 39.738l6.667 4.02-.016 8.247s-.404-4.832-3.24-8.532c-2.6-3.394-3.412-3.734-3.412-3.734M27.1 48.717l6.667 4.02-.016 8.24s-.405-4.83-3.238-8.528c-2.6-3.392-3.413-3.732-3.413-3.732m-.02 18.99l6.667 4.02-.016 8.247s-.405-4.833-3.238-8.532c-2.602-3.394-3.413-3.734-3.413-3.734M16.14 42.103l6.67 4.02-.016 8.24s-.4-4.83-3.243-8.53c-2.6-3.4-3.4-3.73-3.4-3.73m-.033 18.99l6.67 4.02-.016 8.246s-.408-4.833-3.24-8.534C16.92 61.43 16.1 61.09 16.1 61.09M4.293 53.97L10.96 58l-.016 8.247s-.406-4.833-3.24-8.535c-2.6-3.392-3.4-3.73-3.4-3.73m34.4 39.688l6.667 4.02-.016 8.245s-.404-4.832-3.24-8.532c-2.6-3.4-3.4-3.733-3.4-3.733M4.053 72.787l6.666 4.02-.016 8.244s-.407-4.832-3.237-8.53c-2.603-3.4-3.413-3.732-3.413-3.732"/></svg></g></g></g></g></g></g></svg>